<svg width="23" height="13" viewBox="0 0 23 13" fill="none" xmlns="http://www.w3.org/2000/svg">
<path d="M6.27508 5.22028L7.18078 4.31265L6.16187 3.27535H8.86278V1.97874H6.16187L7.19695 0.941445L6.27508 0.0338135L3.68739 2.62705L6.27508 5.22028ZM9.5097 13C9.86551 13 10.17 12.8731 10.4232 12.6194C10.6763 12.3657 10.8031 12.0604 10.8035 11.7034C10.804 11.3464 10.6772 11.0412 10.4232 10.7879C10.1691 10.5347 9.86464 10.4076 9.5097 10.4067C9.15475 10.4059 8.85005 10.5329 8.5956 10.7879C8.34114 11.043 8.21456 11.3481 8.21585 11.7034C8.21715 12.0586 8.34373 12.364 8.5956 12.6194C8.84747 12.8749 9.15217 13.0017 9.5097 13ZM3.04047 13C3.39628 13 3.70076 12.8731 3.95393 12.6194C4.20709 12.3657 4.33389 12.0604 4.33432 11.7034C4.33475 11.3464 4.20795 11.0412 3.95393 10.7879C3.6999 10.5347 3.39542 10.4076 3.04047 10.4067C2.68553 10.4059 2.38083 10.5329 2.12637 10.7879C1.87191 11.043 1.74533 11.3481 1.74662 11.7034C1.74792 12.0586 1.8745 12.364 2.12637 12.6194C2.37824 12.8749 2.68294 13.0017 3.04047 13ZM13.3912 1.33043V0.0338135H11.2726L8.52314 5.86859H3.99468L1.47168 1.33043H-6.67572e-05L3.21837 7.1652H8.79808L9.5097 8.46182H1.74662V9.75844H11.6931L9.76847 6.25757L12.0974 1.33043H13.3912Z" fill="white"/>
<path d="M11.9565 6.03878H16.5797M12.7005 8.11124H20.1933M14.401 0.671631H19.8744M13.0725 2.58467H22" stroke="white" stroke-linecap="round" stroke-linejoin="round"/>
</svg>
