<svg width="19" height="19" viewBox="0 0 19 19" fill="none" xmlns="http://www.w3.org/2000/svg">
<rect width="19" height="19" fill="#1E1E1E"/>
<path d="M-2509 -742C-2509 -743.105 -2508.1 -744 -2507 -744H448C449.104 -744 450 -743.105 450 -742V1262C450 1263.1 449.104 1264 448 1264H-2507C-2508.1 1264 -2509 1263.1 -2509 1262V-742Z" fill="#444444"/>
<path d="M-2507 -743H448V-745H-2507V-743ZM449 -742V1262H451V-742H449ZM448 1263H-2507V1265H448V1263ZM-2508 1262V-742H-2510V1262H-2508ZM-2507 1263C-2507.55 1263 -2508 1262.55 -2508 1262H-2510C-2510 1263.66 -2508.66 1265 -2507 1265V1263ZM449 1262C449 1262.55 448.552 1263 448 1263V1265C449.657 1265 451 1263.66 451 1262H449ZM448 -743C448.552 -743 449 -742.552 449 -742H451C451 -743.657 449.657 -745 448 -745V-743ZM-2507 -745C-2508.66 -745 -2510 -743.657 -2510 -742H-2508C-2508 -742.552 -2507.55 -743 -2507 -743V-745Z" fill="white" fill-opacity="0.1"/>
<path d="M12 4L15 7M10 18H18M2 14L1 18L5 17L16.586 5.414C16.9609 5.03895 17.1716 4.53033 17.1716 4C17.1716 3.46967 16.9609 2.96106 16.586 2.586L16.414 2.414C16.0389 2.03906 15.5303 1.82843 15 1.82843C14.4697 1.82843 13.9611 2.03906 13.586 2.414L2 14Z" stroke="#0FA958" stroke-width="2" stroke-linecap="round" stroke-linejoin="round"/>
</svg>
