<svg width="234" height="210" viewBox="0 0 234 210" fill="none" xmlns="http://www.w3.org/2000/svg">
<path d="M22.787 177.564C12.541 177.564 5.491 170.373 5.491 160.644V160.55C5.491 151.197 12.776 143.536 22.74 143.536C28.662 143.536 32.234 145.134 35.665 148.048L31.106 153.547C28.568 151.432 26.312 150.21 22.505 150.21C17.241 150.21 13.058 154.863 13.058 160.456V160.55C13.058 166.566 17.194 170.984 23.022 170.984C25.654 170.984 28.004 170.326 29.837 169.01V164.31H22.552V158.059H36.84V172.347C33.456 175.214 28.803 177.564 22.787 177.564ZM59.7844 177.564C49.6324 177.564 42.3474 169.997 42.3474 160.644V160.55C42.3474 151.197 49.7264 143.536 59.8784 143.536C70.0304 143.536 77.3154 151.103 77.3154 160.456V160.55C77.3154 169.903 69.9364 177.564 59.7844 177.564ZM59.8784 170.89C65.7064 170.89 69.7484 166.284 69.7484 160.644V160.55C69.7484 154.91 65.6124 150.21 59.7844 150.21C53.9564 150.21 49.9144 154.816 49.9144 160.456V160.55C49.9144 166.19 54.0504 170.89 59.8784 170.89ZM113.243 177.564C103.561 177.564 96.3699 170.091 96.3699 160.644V160.55C96.3699 151.197 103.42 143.536 113.525 143.536C119.729 143.536 123.442 145.604 126.497 148.612L121.891 153.923C119.353 151.62 116.768 150.21 113.478 150.21C107.932 150.21 103.937 154.816 103.937 160.456V160.55C103.937 166.19 107.838 170.89 113.478 170.89C117.238 170.89 119.541 169.386 122.126 167.036L126.732 171.689C123.348 175.308 119.588 177.564 113.243 177.564ZM129.706 177L143.806 143.865H150.48L164.58 177H157.013L154.005 169.621H140.093L137.085 177H129.706ZM142.678 163.229H151.42L147.049 152.56L142.678 163.229ZM169.658 177V144.1H184.698C188.881 144.1 192.124 145.275 194.286 147.437C196.119 149.27 197.106 151.855 197.106 154.957V155.051C197.106 160.362 194.239 163.699 190.056 165.25L198.093 177H189.633L182.583 166.472H176.896V177H169.658ZM176.896 160.08H184.228C187.753 160.08 189.774 158.2 189.774 155.427V155.333C189.774 152.231 187.612 150.633 184.087 150.633H176.896V160.08ZM211.284 177V150.774H201.273V144.1H228.533V150.774H218.522V177H211.284Z" fill="#0FA958"/>
<path d="M5.36 205.16C3.648 205.16 2.032 204.568 0.688 203.368L1.872 201.96C2.944 202.888 4.016 203.416 5.408 203.416C6.624 203.416 7.392 202.856 7.392 202.008V201.976C7.392 201.176 6.944 200.744 4.864 200.264C2.48 199.688 1.136 198.984 1.136 196.92V196.888C1.136 194.968 2.736 193.64 4.96 193.64C6.592 193.64 7.888 194.136 9.024 195.048L7.968 196.536C6.96 195.784 5.952 195.384 4.928 195.384C3.776 195.384 3.104 195.976 3.104 196.712V196.744C3.104 197.608 3.616 197.992 5.76 198.504C8.128 199.08 9.36 199.928 9.36 201.784V201.816C9.36 203.912 7.712 205.16 5.36 205.16ZM15.3224 205.192C12.8744 205.192 10.9864 203.416 10.9864 200.808V200.776C10.9864 198.36 12.6984 196.376 15.1144 196.376C17.8024 196.376 19.1624 198.488 19.1624 200.92C19.1624 201.096 19.1464 201.272 19.1304 201.464H12.9224C13.1304 202.84 14.1064 203.608 15.3544 203.608C16.2984 203.608 16.9704 203.256 17.6424 202.6L18.7784 203.608C17.9784 204.568 16.8744 205.192 15.3224 205.192ZM12.9064 200.184H17.2424C17.1144 198.936 16.3784 197.96 15.0984 197.96C13.9144 197.96 13.0824 198.872 12.9064 200.184ZM21.2186 205V193.32H23.1546V205H21.2186ZM26.1168 205V198.216H25.0448V196.6H26.1168V195.992C26.1168 195.048 26.3568 194.344 26.8048 193.896C27.2528 193.448 27.8768 193.224 28.7088 193.224C29.3808 193.224 29.8448 193.32 30.2768 193.448V195.08C29.8928 194.952 29.5568 194.872 29.1408 194.872C28.4048 194.872 28.0208 195.272 28.0208 196.152V196.616H30.2608V198.216H28.0528V205H26.1168ZM41.9213 205.192C38.6573 205.192 36.2253 202.648 36.2253 199.432V199.4C36.2253 196.216 38.6093 193.608 42.0013 193.608C44.0653 193.608 45.3133 194.328 46.3853 195.352L45.1213 196.808C44.2253 195.976 43.2653 195.416 41.9853 195.416C39.8413 195.416 38.2893 197.176 38.2893 199.368V199.4C38.2893 201.592 39.8413 203.384 41.9853 203.384C43.3612 203.384 44.2413 202.824 45.2013 201.928L46.4653 203.208C45.2973 204.424 44.0173 205.192 41.9213 205.192ZM48.3098 205V193.32H50.2458V197.864C50.7898 197.064 51.5738 196.376 52.8858 196.376C54.7898 196.376 55.8938 197.656 55.8938 199.624V205H53.9578V200.2C53.9578 198.888 53.3018 198.136 52.1498 198.136C51.0298 198.136 50.2458 198.92 50.2458 200.232V205H48.3098ZM62.1036 205.192C59.6556 205.192 57.7676 203.416 57.7676 200.808V200.776C57.7676 198.36 59.4796 196.376 61.8956 196.376C64.5836 196.376 65.9436 198.488 65.9436 200.92C65.9436 201.096 65.9276 201.272 65.9116 201.464H59.7036C59.9116 202.84 60.8876 203.608 62.1356 203.608C63.0796 203.608 63.7516 203.256 64.4236 202.6L65.5596 203.608C64.7596 204.568 63.6556 205.192 62.1036 205.192ZM59.6876 200.184H64.0236C63.8956 198.936 63.1596 197.96 61.8796 197.96C60.6956 197.96 59.8636 198.872 59.6876 200.184ZM71.7919 205.192C69.2799 205.192 67.4239 203.224 67.4239 200.824V200.792C67.4239 198.392 69.2799 196.376 71.8079 196.376C73.4079 196.376 74.3999 196.968 75.1839 197.832L73.9839 199.128C73.3919 198.504 72.7679 198.072 71.7919 198.072C70.3839 198.072 69.3599 199.288 69.3599 200.76V200.792C69.3599 202.296 70.3999 203.512 71.8879 203.512C72.7999 203.512 73.4719 203.08 74.0799 202.456L75.2479 203.608C74.4159 204.536 73.4399 205.192 71.7919 205.192ZM77.0285 205V193.32H78.9645V200.296L82.4685 196.552H84.8205L81.4605 199.992L84.9325 205H82.6925L80.1485 201.352L78.9645 202.584V205H77.0285ZM89.9508 205.192C87.3748 205.192 85.4708 203.224 85.4708 200.824V200.792C85.4708 198.376 87.3908 196.376 89.9828 196.376C92.5748 196.376 94.4788 198.344 94.4788 200.76V200.792C94.4788 203.192 92.5588 205.192 89.9508 205.192ZM89.9828 203.512C91.5508 203.512 92.5428 202.28 92.5428 200.824V200.792C92.5428 199.304 91.4708 198.072 89.9508 198.072C88.3988 198.072 87.4068 199.288 87.4068 200.76V200.792C87.4068 202.264 88.4788 203.512 89.9828 203.512ZM99.3624 205.176C97.4584 205.176 96.3544 203.896 96.3544 201.928V196.552H98.2904V201.352C98.2904 202.664 98.9464 203.416 100.098 203.416C101.218 203.416 102.002 202.632 102.002 201.32V196.552H103.938V205H102.002V203.688C101.458 204.488 100.674 205.176 99.3624 205.176ZM109.204 205.144C107.78 205.144 106.772 204.52 106.772 202.664V198.216H105.7V196.552H106.772V194.232H108.708V196.552H110.98V198.216H108.708V202.36C108.708 203.112 109.092 203.416 109.748 203.416C110.18 203.416 110.564 203.32 110.948 203.128V204.712C110.468 204.984 109.924 205.144 109.204 205.144ZM121.876 205.16C120.164 205.16 118.548 204.568 117.204 203.368L118.388 201.96C119.46 202.888 120.532 203.416 121.924 203.416C123.14 203.416 123.908 202.856 123.908 202.008V201.976C123.908 201.176 123.46 200.744 121.38 200.264C118.996 199.688 117.652 198.984 117.652 196.92V196.888C117.652 194.968 119.252 193.64 121.476 193.64C123.108 193.64 124.404 194.136 125.54 195.048L124.484 196.536C123.476 195.784 122.468 195.384 121.444 195.384C120.292 195.384 119.62 195.976 119.62 196.712V196.744C119.62 197.608 120.132 197.992 122.276 198.504C124.644 199.08 125.876 199.928 125.876 201.784V201.816C125.876 203.912 124.228 205.16 121.876 205.16ZM127.966 205V193.32H129.902V197.864C130.446 197.064 131.23 196.376 132.542 196.376C134.446 196.376 135.55 197.656 135.55 199.624V205H133.614V200.2C133.614 198.888 132.958 198.136 131.806 198.136C130.686 198.136 129.902 198.92 129.902 200.232V205H127.966ZM141.904 205.192C139.328 205.192 137.424 203.224 137.424 200.824V200.792C137.424 198.376 139.344 196.376 141.936 196.376C144.528 196.376 146.432 198.344 146.432 200.76V200.792C146.432 203.192 144.512 205.192 141.904 205.192ZM141.936 203.512C143.504 203.512 144.496 202.28 144.496 200.824V200.792C144.496 199.304 143.424 198.072 141.904 198.072C140.352 198.072 139.36 199.288 139.36 200.76V200.792C139.36 202.264 140.432 203.512 141.936 203.512ZM148.404 207.56V196.552H150.34V197.96C150.964 197.08 151.844 196.376 153.204 196.376C155.204 196.376 157.14 197.96 157.14 200.76V200.792C157.14 203.592 155.22 205.176 153.204 205.176C151.812 205.176 150.932 204.472 150.34 203.688V207.56H148.404ZM152.756 203.496C154.084 203.496 155.172 202.456 155.172 200.792V200.76C155.172 199.128 154.068 198.056 152.756 198.056C151.444 198.056 150.292 199.144 150.292 200.76V200.792C150.292 202.424 151.444 203.496 152.756 203.496ZM159.122 207.56V196.552H161.058V197.96C161.682 197.08 162.562 196.376 163.922 196.376C165.922 196.376 167.858 197.96 167.858 200.76V200.792C167.858 203.592 165.938 205.176 163.922 205.176C162.53 205.176 161.65 204.472 161.058 203.688V207.56H159.122ZM163.474 203.496C164.802 203.496 165.89 202.456 165.89 200.792V200.76C165.89 199.128 164.786 198.056 163.474 198.056C162.162 198.056 161.01 199.144 161.01 200.76V200.792C161.01 202.424 162.162 203.496 163.474 203.496ZM169.873 195.256V193.416H171.953V195.256H169.873ZM169.953 205V196.552H171.889V205H169.953ZM174.419 205V196.552H176.355V197.864C176.899 197.064 177.683 196.376 178.995 196.376C180.899 196.376 182.003 197.656 182.003 199.624V205H180.067V200.2C180.067 198.888 179.411 198.136 178.259 198.136C177.139 198.136 176.355 198.92 176.355 200.232V205H174.419ZM188.101 207.592C186.709 207.592 185.413 207.24 184.325 206.584L185.045 205.128C185.941 205.688 186.901 206.024 188.053 206.024C189.781 206.024 190.725 205.128 190.725 203.432V202.776C190.021 203.688 189.141 204.328 187.749 204.328C185.765 204.328 183.909 202.856 183.909 200.376V200.344C183.909 197.848 185.781 196.376 187.749 196.376C189.173 196.376 190.053 197.032 190.709 197.816V196.552H192.645V203.272C192.645 204.696 192.277 205.752 191.573 206.456C190.805 207.224 189.621 207.592 188.101 207.592ZM188.261 202.696C189.605 202.696 190.741 201.736 190.741 200.376V200.344C190.741 198.952 189.605 198.008 188.261 198.008C186.917 198.008 185.861 198.936 185.861 200.328V200.36C185.861 201.752 186.933 202.696 188.261 202.696ZM205.281 205.192C202.017 205.192 199.585 202.648 199.585 199.432V199.4C199.585 196.216 201.969 193.608 205.361 193.608C207.425 193.608 208.673 194.328 209.745 195.352L208.481 196.808C207.585 195.976 206.625 195.416 205.345 195.416C203.201 195.416 201.649 197.176 201.649 199.368V199.4C201.649 201.592 203.201 203.384 205.345 203.384C206.721 203.384 207.601 202.824 208.561 201.928L209.825 203.208C208.657 204.424 207.377 205.192 205.281 205.192ZM218.757 205H216.837V203.96C216.261 204.648 215.381 205.176 214.101 205.176C212.501 205.176 211.093 204.264 211.093 202.568V202.536C211.093 200.664 212.549 199.768 214.517 199.768C215.541 199.768 216.197 199.912 216.853 200.12V199.96C216.853 198.792 216.117 198.152 214.773 198.152C213.829 198.152 213.125 198.36 212.357 198.68L211.829 197.128C212.757 196.712 213.669 196.424 215.045 196.424C217.541 196.424 218.757 197.736 218.757 199.992V205ZM216.885 201.944V201.464C216.389 201.272 215.701 201.128 214.949 201.128C213.733 201.128 213.013 201.624 213.013 202.44V202.472C213.013 203.272 213.733 203.72 214.645 203.72C215.925 203.72 216.885 203 216.885 201.944ZM221.06 205V196.552H222.996V198.456C223.524 197.192 224.5 196.328 225.988 196.392V198.44H225.876C224.18 198.44 222.996 199.544 222.996 201.784V205H221.06ZM230.501 205.144C229.077 205.144 228.069 204.52 228.069 202.664V198.216H226.997V196.552H228.069V194.232H230.005V196.552H232.277V198.216H230.005V202.36C230.005 203.112 230.389 203.416 231.045 203.416C231.477 203.416 231.861 203.32 232.245 203.128V204.712C231.765 204.984 231.221 205.144 230.501 205.144Z" fill="#0FA958"/>
<path d="M73.0435 48.7999L81.5652 40.2599L71.9783 30.5H97.3913V18.3H71.9783L81.7174 8.53999L73.0435 0L48.6957 24.4L73.0435 48.7999ZM103.478 122C106.826 122 109.691 120.806 112.073 118.419C114.455 116.032 115.648 113.159 115.652 109.8C115.656 106.441 114.463 103.57 112.073 101.187C109.683 98.8036 106.818 97.608 103.478 97.5999C100.139 97.5917 97.2716 98.7873 94.8774 101.187C92.4832 103.586 91.2922 106.457 91.3044 109.8C91.3165 113.143 92.5075 116.016 94.8774 118.419C97.2472 120.823 100.114 122.016 103.478 122ZM42.6087 122C45.9565 122 48.8214 120.806 51.2035 118.419C53.5855 116.032 54.7786 113.159 54.7826 109.8C54.7867 106.441 53.5936 103.57 51.2035 101.187C48.8133 98.8036 45.9484 97.608 42.6087 97.5999C39.269 97.5917 36.402 98.7873 34.0078 101.187C31.6136 103.586 30.4226 106.457 30.4348 109.8C30.447 113.143 31.638 116.016 34.0078 118.419C36.3777 120.823 39.2446 122.016 42.6087 122ZM140 12.2V0H120.065L94.1957 54.8999H51.587L27.8478 12.2H14L44.2826 67.0999H96.7826L103.478 79.2999H30.4348V91.4999H124.022L105.913 58.5599L127.826 12.2H140Z" fill="#0FA958"/>
<path d="M126.5 56.5H170M133.5 76H204M149.5 6H201M137 24H221" stroke="#0FA958" stroke-width="6" stroke-linecap="round" stroke-linejoin="round"/>
</svg>
