<svg width="128" height="128" viewBox="0 0 128 128" fill="none" xmlns="http://www.w3.org/2000/svg">
<g clip-path="url(#clip0_266_1170)">
<path d="M117.333 12.4446H26.6667C23.8377 12.4446 19.7782 12.6664 17.7778 14.6668C15.7774 16.6672 16 20.2823 16 23.1112V44.4446H22.2222V17.3335H122.222L122.667 103.111H22.2222V76.4446H16V97.7779C16 100.607 15.7774 104.666 17.7778 106.667C19.7782 108.667 23.8377 108.445 26.6667 108.445H117.333C120.162 108.445 124.222 108.667 126.222 106.667C128.223 104.666 128 100.607 128 97.7779V23.1112C128 20.2823 128.223 16.6672 126.222 14.6668C124.222 12.6664 120.162 12.4446 117.333 12.4446ZM37.3333 76.4446V62.2356H0V55.1112H37.3333V44.4446L58.6667 60.4446L37.3333 76.4446ZM106.667 61.3467H69.3333V55.1112H106.667V61.3467ZM106.667 40.0001H69.3333V33.7779H106.667V40.0001ZM90.6667 81.7912H69.3333V76.4446H90.6667V81.7912Z" fill="#A1B5AA"/>
</g>
<defs>
<clipPath id="clip0_266_1170">
<rect width="128" height="128" fill="white"/>
</clipPath>
</defs>
</svg>
